<svg xmlns="http://www.w3.org/2000/svg" viewBox="0 0 266 200" width="266" height="200">
  <defs>
    <style>
      .breathe { transform-origin: 133px 140px; animation: breathe 3.2s ease-in-out infinite; }
      @keyframes breathe { 0%,100%{transform:translateY(0)} 50%{transform:translateY(2px)} }
      .tail { transform-origin: 198px 118px; animation: wag 0.55s ease-in-out infinite; }
      @keyframes wag { 0%,100%{transform:rotate(-18deg)} 50%{transform:rotate(22deg)} }
      .ear-l { transform-origin: 88px 62px; animation: ear 2.8s ease-in-out infinite; }
      .ear-r { transform-origin: 168px 62px; animation: ear 2.8s ease-in-out infinite 0.2s; }
      @keyframes ear { 0%,100%{transform:rotate(0)} 40%{transform:rotate(-6deg)} 70%{transform:rotate(4deg)} }
    </style>
  </defs>
  <g class="breathe">
    <ellipse cx="133" cy="178" rx="52" ry="8" fill="#000" opacity=".12"/>
    <g class="tail">
      <path d="M198 120 C230 95, 248 70, 236 48 C228 62, 210 88, 196 112 Z" fill="#c4a574"/>
      <path d="M200 118 C226 98, 240 78, 232 58" fill="none" stroke="#8b6914" stroke-width="3" stroke-linecap="round"/>
    </g>
    <ellipse cx="133" cy="138" rx="58" ry="42" fill="#e8c99a"/>
    <ellipse cx="133" cy="148" rx="38" ry="28" fill="#f5e6c8"/>
    <circle cx="133" cy="88" r="48" fill="#e8c99a"/>
    <ellipse cx="133" cy="102" rx="28" ry="22" fill="#f5e6c8"/>
    <g class="ear-l"><ellipse cx="82" cy="52" rx="18" ry="28" fill="#c4a574" transform="rotate(-18 82 52)"/><ellipse cx="84" cy="56" rx="10" ry="16" fill="#f2b8a0" transform="rotate(-18 84 56)"/></g>
    <g class="ear-r"><ellipse cx="184" cy="52" rx="18" ry="28" fill="#c4a574" transform="rotate(18 184 52)"/><ellipse cx="182" cy="56" rx="10" ry="16" fill="#f2b8a0" transform="rotate(18 182 56)"/></g>
    <ellipse cx="112" cy="86" rx="7" ry="9" fill="#2a2218"/>
    <ellipse cx="154" cy="86" rx="7" ry="9" fill="#2a2218"/>
    <circle cx="114" cy="84" r="2.2" fill="#fff"/><circle cx="156" cy="84" r="2.2" fill="#fff"/>
    <ellipse cx="133" cy="102" rx="9" ry="7" fill="#3a2a22"/>
    <path d="M133 108 Q133 118 124 120" fill="none" stroke="#3a2a22" stroke-width="2.5" stroke-linecap="round"/>
    <path d="M133 108 Q133 118 142 120" fill="none" stroke="#3a2a22" stroke-width="2.5" stroke-linecap="round"/>
    <circle cx="108" cy="108" r="6" fill="#f0a090" opacity=".55"/>
    <circle cx="158" cy="108" r="6" fill="#f0a090" opacity=".55"/>
    <ellipse cx="100" cy="158" rx="14" ry="10" fill="#d4b07a"/>
    <ellipse cx="166" cy="158" rx="14" ry="10" fill="#d4b07a"/>
  </g>
</svg>
