<?xml version="1.0" encoding="UTF-8"?>
<svg xmlns="http://www.w3.org/2000/svg" viewBox="0 0 512 512" width="512" height="512" overflow="hidden">
  <title>sit</title>
  <defs><style>
  .breathe { transform-origin: 256px 420px; animation: breathe 3.4s ease-in-out infinite; }
  @keyframes breathe {
    0%,100% { transform: translateY(0) scale(1,1); }
    50% { transform: translateY(2px) scale(1.01,0.985); }
  }
  .blink { transform-origin: 256px 168px; animation: blink 5s ease-in-out infinite; }
  @keyframes blink {
    0%,8%,100% { transform: scaleY(1); }
    4% { transform: scaleY(0.08); }
  }
  .ahoge { transform-origin: 268px 78px; animation: ahoge 2.6s ease-in-out infinite; }
  @keyframes ahoge {
    0%,100% { transform: rotate(-4deg); }
    50% { transform: rotate(10deg); }
  }
  .ponytail { transform-origin: 300px 110px; animation: ponytail 3.2s ease-in-out infinite; }
  @keyframes ponytail {
    0%,100% { transform: rotate(0deg); }
    50% { transform: rotate(6deg); }
  }
  .ribbon { transform-origin: 318px 118px; animation: ribbon 2.4s ease-in-out infinite; }
  @keyframes ribbon {
    0%,100% { transform: rotate(-4deg); }
    50% { transform: rotate(8deg); }
  }
  .gourd { transform-origin: 318px 290px; animation: gourd 2.8s ease-in-out infinite; }
  @keyframes gourd {
    0%,100% { transform: rotate(-6deg); }
    50% { transform: rotate(8deg); }
  }
  .sleeve { transform-origin: 180px 260px; animation: sleeve 3s ease-in-out infinite; }
  .sleeve-r { transform-origin: 330px 260px; animation: sleeve 3s ease-in-out infinite 0.15s; }
  @keyframes sleeve {
    0%,100% { transform: rotate(0deg); }
    50% { transform: rotate(3deg); }
  }


  .breathe { transform-origin: 256px 360px; animation: snooze 4s ease-in-out infinite; }
  @keyframes snooze {
    0%,100% { transform: translateY(0); }
    50% { transform: translateY(2px); }
  }
  .zzz { animation: zzz 2.4s ease-in-out infinite; }
  .zzz-b { animation-delay: .6s; }
  @keyframes zzz {
    0% { transform: translate(0,0) scale(.7); opacity: 0; }
    30% { opacity: .9; }
    100% { transform: translate(10px,-34px) scale(1.1); opacity: 0; }
  }
  .bird { transform-origin: 150px 390px; animation: bird 2.2s ease-in-out infinite; }
  @keyframes bird {
    0%,100% { transform: translateY(0) scale(1,1); }
    50% { transform: translateY(-3px) scale(1.03,.97); }
  }

  </style></defs>
  
  <g class="breathe">
    <!-- ponytail behind -->
    <g class="ponytail">
      <path d="M290 105 C340 130 360 200 348 280 C340 330 310 360 290 340 C310 300 320 240 300 170 Z" fill="#3D2A1F"/>
      <path d="M300 120 C330 150 340 210 332 270" fill="none" stroke="#5A4030" stroke-width="6" opacity=".35"/>
    </g>
    <g class="ribbon">
      <path d="M308 112 C330 130 345 170 350 210" fill="none" stroke="#A8D4E8" stroke-width="7" stroke-linecap="round"/>
      <path d="M308 112 C325 140 330 180 322 220" fill="none" stroke="#7EB8D0" stroke-width="5" stroke-linecap="round"/>
    </g>

    
      <ellipse cx="210" cy="390" rx="42" ry="18" fill="#F7F4EE" stroke="#3D2A1F" stroke-width="3.5"/>
      <ellipse cx="302" cy="390" rx="42" ry="18" fill="#F7F4EE" stroke="#3D2A1F" stroke-width="3.5"/>
      <ellipse cx="188" cy="402" rx="16" ry="10" fill="#2A2A2A"/>
      <ellipse cx="324" cy="402" rx="16" ry="10" fill="#2A2A2A"/>
      <rect x="182" y="392" width="14" height="6" rx="2" fill="#D4AF37"/>
      <rect x="318" y="392" width="14" height="6" rx="2" fill="#D4AF37"/>
    

    <!-- torso -->
    <ellipse cx="256" cy="290" rx="58" ry="70" fill="#F7F4EE" stroke="#3D2A1F" stroke-width="3.5"/>
    <path d="M210 260 L256 240 L302 260" fill="none" stroke="#6DB8B0" stroke-width="8" stroke-linecap="round"/>
    <path d="M220 270 Q256 258 292 270" fill="#8FD4C8" opacity=".55"/>
    <!-- belt -->
    <rect x="214" y="305" width="84" height="16" rx="4" fill="#243530" stroke="#1A2420" stroke-width="2"/>
    <circle cx="256" cy="313" r="9" fill="#3DA88E" stroke="#D4AF37" stroke-width="2.5"/>
    <rect x="248" y="320" width="16" height="28" rx="3" fill="#6DB8B0" opacity=".85"/>

    <g class="gourd">
      <ellipse cx="318" cy="318" rx="12" ry="10" fill="#8FD4C8" stroke="#3D6B60" stroke-width="2"/>
      <ellipse cx="318" cy="336" rx="16" ry="14" fill="#8FD4C8" stroke="#3D6B60" stroke-width="2"/>
      <circle cx="318" cy="304" r="4" fill="#D4AF37"/>
      <path d="M318 348 L318 362" stroke="#8B5A3C" stroke-width="2"/>
      <circle cx="318" cy="366" r="3" fill="#D4AF37"/>
    </g>

    <g class="sleeve">
        <path d="M198 255 Q160 290 170 330" fill="none" stroke="#F7F4EE" stroke-width="26" stroke-linecap="round"/>
        <path d="M198 255 Q160 290 170 330" fill="none" stroke="#6DB8B0" stroke-width="8" stroke-linecap="round" opacity=".55"/>
        <circle cx="168" cy="334" r="12" fill="#F5D5C0" stroke="#3D2A1F" stroke-width="2.5"/>
      </g>
    <g class="sleeve-r">
        <path d="M314 250 Q312 210 302 170" fill="none" stroke="#F7F4EE" stroke-width="24" stroke-linecap="round"/>
        <path d="M314 250 Q312 210 302 170" fill="none" stroke="#6DB8B0" stroke-width="7" stroke-linecap="round" opacity=".5"/>
        <circle cx="302" cy="168" r="11" fill="#F5D5C0" stroke="#3D2A1F" stroke-width="2.5"/>
        <rect x="298" y="140" width="7" height="22" rx="3" fill="#F5D5C0" stroke="#3D2A1F" stroke-width="2"/>
      </g>

    <!-- head -->
    <circle cx="256" cy="150" r="78" fill="#F8DCC8" stroke="#3D2A1F" stroke-width="3.5"/>
    <!-- hair dome -->
    <path d="M180 140 C185 60 220 40 256 38 C292 40 327 60 332 140 C310 95 280 80 256 78 C232 80 202 95 180 140 Z" fill="#3D2A1F"/>
    <path d="M195 145 C210 175 225 170 232 148" fill="#3D2A1F"/>
    <path d="M280 148 C290 172 305 178 318 145" fill="#3D2A1F"/>
    <path d="M240 142 C248 168 260 168 268 142" fill="#3D2A1F"/>
    <!-- lotus ornament -->
    <g transform="translate(300,80)">
      <ellipse cx="0" cy="0" rx="10" ry="7" fill="#E8F4F0" stroke="#6DB8B0" stroke-width="1.5"/>
      <ellipse cx="-6" cy="2" rx="6" ry="4" fill="#C8E8E0"/>
      <ellipse cx="6" cy="2" rx="6" ry="4" fill="#C8E8E0"/>
    </g>
    <g class="ahoge">
      <path d="M268 50 C275 20 255 10 250 30" fill="none" stroke="#3D2A1F" stroke-width="7" stroke-linecap="round"/>
    </g>

    <!-- blush -->
    <ellipse cx="210" cy="178" rx="12" ry="7" fill="#F5A090" opacity=".55"/>
    <ellipse cx="302" cy="178" rx="12" ry="7" fill="#F5A090" opacity=".55"/>

    
      <path d="M210 168 Q226 158 242 168" fill="none" stroke="#3D2A1F" stroke-width="4.5" stroke-linecap="round"/>
      <path d="M270 168 Q286 158 302 168" fill="none" stroke="#3D2A1F" stroke-width="4.5" stroke-linecap="round"/>
    
    <path d="M244 200 Q256 206 268 200" fill="none" stroke="#3D2A1F" stroke-width="3" stroke-linecap="round"/>

    
      <text class="zzz" x="330" y="140" font-family="Segoe UI, sans-serif" font-size="22" font-weight="700" fill="#6DB8B0">z</text>
      <text class="zzz zzz-b" x="348" y="118" font-family="Segoe UI, sans-serif" font-size="28" font-weight="700" fill="#4A9B94">Z</text>
    
<g class="bird" transform="translate(150,400)">
    <ellipse cx="0" cy="8" rx="28" ry="24" fill="#FFF8F0" stroke="#5C3A28" stroke-width="3"/>
    <ellipse cx="-18" cy="2" rx="10" ry="8" fill="#8FD4C8" stroke="#5C3A28" stroke-width="2"/>
    <ellipse cx="18" cy="2" rx="10" ry="8" fill="#8FD4C8" stroke="#5C3A28" stroke-width="2"/>
    <path d="M-6 -18 Q0 -30 6 -18" fill="#8FD4C8" stroke="#5C3A28" stroke-width="2"/>
    <circle cx="-8" cy="2" r="3.2" fill="#2A1A12"/>
    <circle cx="8" cy="2" r="3.2" fill="#2A1A12"/>
    <circle cx="-7" cy="1" r="1" fill="#fff"/>
    <circle cx="9" cy="1" r="1" fill="#fff"/>
    <ellipse cx="0" cy="10" rx="4" ry="3" fill="#F0A060"/>
    <ellipse cx="-10" cy="28" rx="4" ry="3" fill="#E07A40"/>
    <ellipse cx="10" cy="28" rx="4" ry="3" fill="#E07A40"/>
  </g>
  </g>
</svg>
